<svg width="56" height="39" viewBox="0 0 56 39" fill="none" xmlns="http://www.w3.org/2000/svg">
<rect x="3.85889" y="0.5" width="48.1007" height="38" rx="15.5" fill="white" stroke="#11274D"/>
<rect x="7.22583" y="4.42822" width="41.3669" height="30.1439" rx="12.5" fill="#1C3458" stroke="#102649"/>
<ellipse cx="19.3516" cy="17.3959" rx="3.92806" ry="5.33094" fill="#49D7EE"/>
<ellipse cx="37.3084" cy="17.3959" rx="3.92806" ry="5.33094" fill="#49D7EE"/>
<path d="M32.3724 25.252C32.4899 25.252 32.6111 25.2877 32.7012 25.3962C32.7906 25.5038 32.8194 25.647 32.8194 25.7854C32.8194 25.9047 32.7833 26.0233 32.7327 26.134C32.6812 26.2469 32.6075 26.3672 32.5159 26.4939C32.3327 26.7474 32.0634 27.0464 31.713 27.3897L31.6163 27.4827C30.6097 28.4282 29.4179 28.8994 28.0496 28.8994C26.6812 28.8994 25.4895 28.4282 24.4828 27.4827L24.3861 27.3897C24.0358 27.0464 23.7664 26.7474 23.5832 26.4939C23.4916 26.3672 23.4179 26.2469 23.3664 26.134C23.3159 26.0233 23.2798 25.9047 23.2798 25.7854C23.2798 25.647 23.3085 25.5038 23.3979 25.3962C23.488 25.2877 23.6092 25.252 23.7268 25.252C23.8974 25.252 24.0596 25.3255 24.2104 25.451L24.2144 25.4545L24.2185 25.4585C24.3839 25.6135 24.5476 25.7685 24.7093 25.9236C25.5365 26.669 26.6459 27.0524 28.0552 27.0524C29.4538 27.0524 30.5542 26.6732 31.3739 25.9361C31.3742 25.9358 31.3746 25.9353 31.3749 25.935L31.3758 25.9342C31.3762 25.9339 31.3766 25.9335 31.3769 25.9331C31.3772 25.9328 31.3776 25.9326 31.378 25.9323C31.3783 25.932 31.3785 25.9316 31.3788 25.9313C31.3792 25.931 31.3796 25.9307 31.3799 25.9304C31.3802 25.9301 31.3806 25.9297 31.381 25.9294L31.3818 25.9286C31.3822 25.9283 31.3826 25.9278 31.3829 25.9275L31.3838 25.9267C31.3841 25.9264 31.3845 25.926 31.3848 25.9256C31.3852 25.9253 31.3856 25.9251 31.3859 25.9248C31.3862 25.9245 31.3865 25.9241 31.3868 25.9238C31.3871 25.9235 31.3875 25.9232 31.3879 25.9229C31.3882 25.9226 31.3886 25.9222 31.3889 25.9219L31.3898 25.9211C31.3901 25.9207 31.3905 25.9203 31.3909 25.92L31.3917 25.9192C31.3921 25.9189 31.3925 25.9185 31.3928 25.9181C31.3931 25.9178 31.3935 25.9176 31.3939 25.9173C31.3942 25.917 31.3944 25.9166 31.3947 25.9163C31.3951 25.916 31.3955 25.9157 31.3958 25.9154C31.3961 25.9151 31.3965 25.9147 31.3969 25.9144L31.3978 25.9136C31.3981 25.9132 31.3985 25.9128 31.3988 25.9125L31.3997 25.9117C31.4 25.9114 31.4004 25.911 31.4008 25.9106C31.4011 25.9103 31.4015 25.9101 31.4018 25.9098C31.4021 25.9095 31.4024 25.9091 31.4027 25.9088C31.403 25.9085 31.4034 25.9082 31.4038 25.9079C31.4041 25.9076 31.4045 25.9072 31.4048 25.9069L31.4057 25.9061C31.406 25.9057 31.4064 25.9053 31.4068 25.905L31.4077 25.9042C31.408 25.9039 31.4084 25.9035 31.4087 25.9031C31.409 25.9028 31.4095 25.9026 31.4098 25.9023C31.4101 25.902 31.4103 25.9016 31.4107 25.9013C31.411 25.901 31.4114 25.9007 31.4117 25.9004C31.4121 25.9001 31.4125 25.8997 31.4128 25.8994L31.4137 25.8986C31.414 25.8982 31.4144 25.8978 31.4147 25.8975L31.4156 25.8967C31.4159 25.8964 31.4163 25.896 31.4167 25.8956C31.417 25.8953 31.4174 25.8951 31.4177 25.8948C31.4181 25.8945 31.4183 25.8941 31.4186 25.8938C31.4189 25.8935 31.4193 25.8932 31.4197 25.8929C31.42 25.8926 31.4204 25.8922 31.4207 25.8919L31.4216 25.8911C31.422 25.8907 31.4224 25.8903 31.4227 25.89L31.4236 25.8892C31.4239 25.8889 31.4243 25.8884 31.4246 25.8881C31.425 25.8878 31.4254 25.8876 31.4257 25.8873C31.426 25.887 31.4263 25.8866 31.4266 25.8863C31.4269 25.8859 31.4273 25.8857 31.4276 25.8854C31.428 25.8851 31.4284 25.8847 31.4287 25.8844L31.4296 25.8836C31.4299 25.8832 31.4303 25.8828 31.4306 25.8825L31.4315 25.8817C31.4319 25.8814 31.4323 25.8809 31.4326 25.8806C31.4329 25.8803 31.4333 25.8801 31.4336 25.8798C31.434 25.8795 31.4342 25.8791 31.4345 25.8788C31.4349 25.8784 31.4353 25.8782 31.4356 25.8779C31.4359 25.8776 31.4363 25.8772 31.4367 25.8769L31.4375 25.8761C31.4379 25.8757 31.4383 25.8753 31.4386 25.875L31.4395 25.8742C31.4398 25.8739 31.4402 25.8734 31.4405 25.8731C31.4409 25.8728 31.4413 25.8726 31.4416 25.8723C31.4419 25.872 31.4422 25.8716 31.4425 25.8713C31.4428 25.8709 31.4432 25.8707 31.4436 25.8704C31.4439 25.8701 31.4443 25.8697 31.4446 25.8694L31.4455 25.8685C31.4458 25.8682 31.4462 25.8678 31.4466 25.8675L31.4474 25.8667C31.4478 25.8664 31.4482 25.8659 31.4485 25.8656C31.4488 25.8653 31.4492 25.8651 31.4496 25.8648C31.4499 25.8645 31.4501 25.8641 31.4504 25.8638C31.4508 25.8634 31.4512 25.8632 31.4515 25.8629C31.4518 25.8626 31.4522 25.8622 31.4526 25.8619L31.4535 25.861C31.4538 25.8607 31.4542 25.8603 31.4545 25.86L31.4554 25.8592C31.4557 25.8589 31.4561 25.8584 31.4565 25.8581C31.4568 25.8578 31.4572 25.8576 31.4575 25.8573C31.4578 25.857 31.4581 25.8566 31.4584 25.8563C31.4587 25.8559 31.4591 25.8557 31.4595 25.8554C31.4598 25.8551 31.4602 25.8547 31.4605 25.8544L31.4614 25.8535C31.4617 25.8532 31.4621 25.8528 31.4625 25.8525L31.4634 25.8517C31.4637 25.8514 31.4641 25.8509 31.4644 25.8506C31.4647 25.8503 31.4652 25.8501 31.4655 25.8498C31.4658 25.8495 31.466 25.8491 31.4664 25.8488C31.4667 25.8484 31.4671 25.8482 31.4674 25.8479C31.4678 25.8476 31.4681 25.8472 31.4685 25.8469L31.4694 25.846C31.4697 25.8457 31.4701 25.8453 31.4704 25.845L31.4713 25.8442C31.4716 25.8439 31.472 25.8434 31.4724 25.8431C31.4727 25.8428 31.4731 25.8426 31.4734 25.8423C31.4738 25.842 31.474 25.8416 31.4743 25.8413C31.4746 25.8409 31.475 25.8407 31.4754 25.8404C31.4757 25.8401 31.4761 25.8397 31.4764 25.8394L31.4773 25.8385C31.4777 25.8382 31.4781 25.8378 31.4784 25.8375L31.4793 25.8367C31.4796 25.8364 31.48 25.8359 31.4803 25.8356C31.4806 25.8353 31.4811 25.8351 31.4814 25.8348C31.4817 25.8345 31.4819 25.8341 31.4823 25.8337C31.4826 25.8334 31.483 25.8332 31.4833 25.8329C31.4837 25.8326 31.4841 25.8322 31.4844 25.8319L31.4853 25.831C31.4856 25.8307 31.486 25.8303 31.4863 25.83L31.4872 25.8292C31.4876 25.8289 31.488 25.8284 31.4883 25.8281C31.4886 25.8278 31.489 25.8276 31.4893 25.8273C31.4897 25.827 31.4899 25.8266 31.4902 25.8262C31.4906 25.8259 31.491 25.8257 31.4913 25.8254C31.4916 25.8251 31.492 25.8247 31.4924 25.8244L31.4932 25.8235C31.4936 25.8232 31.494 25.8228 31.4943 25.8225L31.4952 25.8217C31.4955 25.8214 31.4959 25.8209 31.4962 25.8206C31.4966 25.8203 31.497 25.8201 31.4973 25.8198C31.4976 25.8195 31.4979 25.8191 31.4982 25.8187C31.4985 25.8184 31.4989 25.8182 31.4992 25.8179C31.4996 25.8176 31.5 25.8172 31.5003 25.8169L31.5012 25.816C31.5015 25.8157 31.5019 25.8153 31.5023 25.815L31.5031 25.8142C31.5035 25.8138 31.5039 25.8134 31.5042 25.8131C31.5045 25.8128 31.5049 25.8126 31.5053 25.8123C31.5056 25.812 31.5058 25.8115 31.5061 25.8112C31.5065 25.8109 31.5069 25.8107 31.5072 25.8104C31.5075 25.8101 31.5079 25.8097 31.5083 25.8094L31.5091 25.8085C31.5095 25.8082 31.5099 25.8078 31.5102 25.8075L31.5111 25.8067C31.5114 25.8063 31.5118 25.8059 31.5122 25.8056C31.5125 25.8053 31.5129 25.8051 31.5132 25.8048C31.5135 25.8045 31.5138 25.804 31.5141 25.8037C31.5144 25.8034 31.5148 25.8032 31.5152 25.8029C31.5155 25.8026 31.5159 25.8022 31.5162 25.8019L31.5171 25.801C31.5174 25.8007 31.5178 25.8003 31.5182 25.8L31.5191 25.7992C31.5194 25.7988 31.5198 25.7984 31.5201 25.7981C31.5204 25.7978 31.5208 25.7976 31.5212 25.7973C31.5215 25.797 31.5217 25.7965 31.5221 25.7962C31.5224 25.7959 31.5228 25.7957 31.5231 25.7954C31.5234 25.7951 31.5238 25.7947 31.5242 25.7944L31.5251 25.7935C31.5254 25.7932 31.5258 25.7928 31.5261 25.7925L31.527 25.7917C31.5273 25.7913 31.5277 25.7909 31.5281 25.7906C31.5284 25.7903 31.5288 25.7901 31.5291 25.7898C31.5295 25.7895 31.5297 25.789 31.53 25.7887C31.5303 25.7884 31.5307 25.7882 31.5311 25.7879C31.5314 25.7876 31.5318 25.7872 31.5321 25.7869L31.533 25.786C31.5333 25.7857 31.5337 25.7853 31.5341 25.785L31.535 25.7842C31.5353 25.7838 31.5357 25.7834 31.536 25.7831C31.5363 25.7828 31.5368 25.7826 31.5371 25.7823C31.5374 25.782 31.5376 25.7815 31.538 25.7812C31.5383 25.7809 31.5387 25.7807 31.539 25.7804C31.5394 25.7801 31.5398 25.7797 31.5401 25.7794L31.541 25.7785C31.5413 25.7782 31.5417 25.7778 31.542 25.7775L31.5429 25.7767C31.5433 25.7763 31.5436 25.7759 31.544 25.7756C31.5443 25.7753 31.5447 25.7751 31.545 25.7748C31.5454 25.7745 31.5456 25.774 31.5459 25.7737C31.5463 25.7734 31.5467 25.7732 31.547 25.7729C31.5473 25.7726 31.5477 25.7722 31.548 25.7719L31.5489 25.771C31.5493 25.7707 31.5497 25.7703 31.55 25.77L31.5509 25.7692C31.5512 25.7688 31.5516 25.7684 31.5519 25.7681C31.5523 25.7678 31.5527 25.7676 31.553 25.7673C31.5533 25.767 31.5536 25.7665 31.5539 25.7662C31.5542 25.7659 31.5546 25.7657 31.5549 25.7654C31.5553 25.7651 31.5557 25.7647 31.556 25.7644L31.5569 25.7635C31.5572 25.7632 31.5576 25.7628 31.558 25.7625L31.5588 25.7617C31.5592 25.7613 31.5596 25.7609 31.5599 25.7606C31.5602 25.7603 31.5606 25.7601 31.561 25.7598C31.5613 25.7595 31.5615 25.759 31.5618 25.7587C31.5622 25.7584 31.5626 25.7582 31.5629 25.7579C31.5632 25.7576 31.5636 25.7572 31.564 25.7569L31.5648 25.756C31.5652 25.7557 31.5656 25.7553 31.5659 25.755L31.5668 25.7541C31.5671 25.7538 31.5675 25.7534 31.5679 25.7531C31.5682 25.7528 31.5686 25.7526 31.5689 25.7523C31.5692 25.752 31.5695 25.7515 31.5698 25.7512C31.5701 25.7509 31.5705 25.7507 31.5709 25.7504C31.5712 25.7501 31.5716 25.7497 31.5719 25.7494L31.5728 25.7485C31.5731 25.7482 31.5735 25.7478 31.5739 25.7475L31.5747 25.7466C31.5751 25.7463 31.5755 25.7459 31.5758 25.7456C31.5761 25.7453 31.5765 25.7451 31.5769 25.7448C31.5772 25.7445 31.5774 25.744 31.5778 25.7437C31.5781 25.7434 31.5785 25.7432 31.5788 25.7429C31.5791 25.7426 31.5795 25.7422 31.5799 25.7419L31.5808 25.741C31.5811 25.7407 31.5815 25.7403 31.5818 25.74L31.5827 25.7391C31.583 25.7388 31.5834 25.7384 31.5838 25.7381C31.5841 25.7378 31.5845 25.7376 31.5848 25.7373C31.5851 25.737 31.5854 25.7365 31.5857 25.7362C31.586 25.7359 31.5864 25.7357 31.5868 25.7354C31.5871 25.7351 31.5875 25.7347 31.5878 25.7344L31.5887 25.7335C31.589 25.7332 31.5894 25.7328 31.5898 25.7325L31.5907 25.7316C31.591 25.7313 31.5914 25.7309 31.5917 25.7306C31.592 25.7303 31.5925 25.7301 31.5928 25.7298C31.5931 25.7295 31.5933 25.729 31.5937 25.7287C31.594 25.7284 31.5944 25.7282 31.5947 25.7279C31.5951 25.7276 31.5955 25.7272 31.5958 25.7269L31.5967 25.726C31.597 25.7257 31.5974 25.7253 31.5977 25.725L31.5986 25.7241C31.5989 25.7238 31.5993 25.7234 31.5997 25.7231C31.6 25.7228 31.6004 25.7226 31.6007 25.7223C31.6011 25.722 31.6013 25.7215 31.6016 25.7212C31.602 25.7209 31.6024 25.7207 31.6027 25.7204C31.603 25.7201 31.6034 25.7197 31.6037 25.7193L31.6046 25.7185C31.605 25.7182 31.6054 25.7178 31.6057 25.7175L31.6066 25.7166C31.6069 25.7163 31.6073 25.7159 31.6076 25.7156C31.608 25.7153 31.6084 25.7151 31.6087 25.7148C31.609 25.7145 31.6093 25.714 31.6096 25.7137C31.6099 25.7134 31.6103 25.7132 31.6106 25.7129C31.611 25.7126 31.6114 25.7122 31.6117 25.7118L31.6126 25.711C31.6129 25.7107 31.6133 25.7103 31.6136 25.71L31.6145 25.7091C31.6149 25.7088 31.6153 25.7084 31.6156 25.7081C31.6159 25.7078 31.6163 25.7076 31.6167 25.7073C31.617 25.707 31.6172 25.7065 31.6175 25.7062C31.6179 25.7059 31.6183 25.7057 31.6186 25.7054C31.6189 25.7051 31.6193 25.7047 31.6197 25.7043L31.6205 25.7035C31.6209 25.7032 31.6213 25.7028 31.6216 25.7025L31.6225 25.7016C31.6228 25.7013 31.6232 25.7009 31.6235 25.7006C31.6239 25.7003 31.6243 25.7001 31.6246 25.6998C31.6249 25.6995 31.6252 25.699 31.6255 25.6987C31.6258 25.6984 31.6262 25.6982 31.6266 25.6979C31.6269 25.6976 31.6273 25.6972 31.6276 25.6968L31.6285 25.696C31.6288 25.6957 31.6292 25.6953 31.6296 25.695L31.6304 25.6941C31.6308 25.6938 31.6312 25.6934 31.6315 25.6931C31.6318 25.6928 31.6322 25.6926 31.6326 25.6923C31.6329 25.692 31.6331 25.6915 31.6335 25.6912C31.6338 25.6909 31.6342 25.6907 31.6345 25.6904C31.6348 25.6901 31.6352 25.6897 31.6356 25.6893L31.6365 25.6885C31.6368 25.6882 31.6372 25.6878 31.6375 25.6875L31.6384 25.6866C31.6387 25.6863 31.6391 25.6859 31.6395 25.6856C31.6398 25.6853 31.6402 25.6851 31.6405 25.6848C31.6408 25.6845 31.6411 25.684 31.6414 25.6837C31.6417 25.6834 31.6421 25.6832 31.6425 25.6829C31.6428 25.6826 31.6432 25.6822 31.6435 25.6818L31.6444 25.681C31.6447 25.6807 31.6451 25.6803 31.6455 25.68L31.6464 25.6791C31.6467 25.6788 31.6471 25.6784 31.6474 25.6781C31.6477 25.6778 31.6482 25.6776 31.6485 25.6773C31.6488 25.677 31.649 25.6765 31.6494 25.6762C31.6497 25.6759 31.6501 25.6757 31.6504 25.6754C31.6508 25.6751 31.6512 25.6747 31.6515 25.6743L31.6524 25.6735C31.6527 25.6732 31.6531 25.6728 31.6534 25.6725L31.6543 25.6716C31.6546 25.6713 31.655 25.6709 31.6554 25.6706C31.6557 25.6703 31.6561 25.6701 31.6564 25.6698C31.6568 25.6694 31.657 25.669 31.6573 25.6687C31.6577 25.6684 31.6581 25.6682 31.6584 25.6679C31.6587 25.6676 31.6591 25.6672 31.6594 25.6668L31.6603 25.666C31.6607 25.6657 31.6611 25.6653 31.6614 25.665L31.6623 25.6641C31.6626 25.6638 31.663 25.6634 31.6633 25.6631C31.6637 25.6628 31.6641 25.6626 31.6644 25.6623C31.6647 25.6619 31.665 25.6615 31.6653 25.6612C31.6656 25.6609 31.666 25.6607 31.6663 25.6604C31.6667 25.6601 31.6671 25.6596 31.6674 25.6593L31.6683 25.6585C31.6686 25.6582 31.669 25.6578 31.6693 25.6575L31.6702 25.6566C31.6706 25.6563 31.671 25.6559 31.6713 25.6556C31.6716 25.6553 31.672 25.6551 31.6723 25.6548C31.6727 25.6544 31.6729 25.654 31.6732 25.6537C31.6736 25.6534 31.674 25.6532 31.6743 25.6529C31.6746 25.6526 31.675 25.6521 31.6754 25.6518L31.6762 25.651C31.6766 25.6507 31.677 25.6503 31.6773 25.65L31.6782 25.6491C31.6785 25.6488 31.6789 25.6484 31.6792 25.6481C31.6796 25.6478 31.68 25.6476 31.6803 25.6472C31.6806 25.6469 31.6809 25.6465 31.6812 25.6462C31.6815 25.6459 31.6819 25.6457 31.6823 25.6454C31.6826 25.6451 31.683 25.6446 31.6833 25.6443L31.6842 25.6435C31.6845 25.6432 31.6849 25.6428 31.6853 25.6425L31.6861 25.6416C31.6865 25.6413 31.6869 25.6409 31.6872 25.6406C31.6875 25.6403 31.6879 25.6401 31.6883 25.6397C31.6886 25.6394 31.6888 25.639 31.6891 25.6387C31.6895 25.6384 31.6899 25.6382 31.6902 25.6379C31.6905 25.6376 31.6909 25.6371 31.6913 25.6368L31.6922 25.636C31.6925 25.6357 31.6929 25.6353 31.6932 25.635L31.6941 25.6341C31.6944 25.6338 31.6948 25.6334 31.6952 25.6331C31.6955 25.6328 31.6959 25.6326 31.6962 25.6322C31.6965 25.6319 31.6968 25.6315 31.6971 25.6312C31.6974 25.6309 31.6978 25.6307 31.6982 25.6304C31.6985 25.6301 31.6989 25.6296 31.6992 25.6293L31.7001 25.6285C31.7004 25.6282 31.7008 25.6278 31.7012 25.6275L31.7021 25.6266C31.7024 25.6263 31.7028 25.6259 31.7031 25.6256C31.7034 25.6253 31.7039 25.625 31.7042 25.6247C31.7045 25.6244 31.7047 25.624 31.7051 25.6237C31.7054 25.6234 31.7058 25.6232 31.7061 25.6229C31.7065 25.6226 31.7069 25.6221 31.7072 25.6218L31.7081 25.621C31.7084 25.6207 31.7088 25.6203 31.7091 25.62L31.71 25.6191C31.7103 25.6188 31.7107 25.6184 31.7111 25.6181C31.7114 25.6178 31.7118 25.6175 31.7121 25.6172C31.7125 25.6169 31.7127 25.6165 31.713 25.6162C31.7133 25.6159 31.7137 25.6157 31.7141 25.6154C31.7144 25.6151 31.7148 25.6146 31.7151 25.6143L31.716 25.6135C31.7164 25.6132 31.7168 25.6128 31.7171 25.6125L31.718 25.6116C31.7183 25.6113 31.7187 25.6109 31.719 25.6106C31.7194 25.6103 31.7198 25.61 31.7201 25.6097C31.7204 25.6094 31.7207 25.609 31.721 25.6087C31.7213 25.6084 31.7217 25.6082 31.722 25.6079C31.7224 25.6076 31.7228 25.6071 31.7231 25.6068L31.724 25.606C31.7243 25.6057 31.7247 25.6053 31.725 25.6049L31.7259 25.6041C31.7263 25.6038 31.7267 25.6034 31.727 25.6031C31.7273 25.6028 31.7277 25.6025 31.728 25.6022C31.7284 25.6019 31.7286 25.6015 31.7289 25.6012C31.7293 25.6009 31.7297 25.6007 31.73 25.6004C31.7303 25.6001 31.7307 25.5996 31.7311 25.5993L31.7319 25.5985C31.7323 25.5982 31.7327 25.5978 31.733 25.5974L31.7339 25.5966C31.7342 25.5963 31.7346 25.5959 31.7349 25.5956C31.7353 25.5953 31.7357 25.595 31.736 25.5947C31.7363 25.5944 31.7366 25.594 31.7369 25.5937C31.7372 25.5934 31.7376 25.5932 31.7379 25.5929C31.7383 25.5926 31.7387 25.5921 31.739 25.5918L31.7399 25.591C31.7402 25.5907 31.7406 25.5903 31.741 25.5899L31.7418 25.5891C31.7422 25.5888 31.7426 25.5884 31.7429 25.5881C31.7432 25.5878 31.7436 25.5875 31.744 25.5872C31.7443 25.5869 31.7445 25.5865 31.7448 25.5862C31.7452 25.5859 31.7456 25.5857 31.7459 25.5854C31.7462 25.585 31.7466 25.5846 31.747 25.5843L31.7479 25.5835C31.7482 25.5832 31.7486 25.5828 31.7489 25.5824L31.7498 25.5816C31.7501 25.5813 31.7505 25.5809 31.7509 25.5806C31.7512 25.5803 31.7516 25.58 31.7519 25.5797C31.7522 25.5794 31.7525 25.579 31.7528 25.5787C31.7531 25.5784 31.7535 25.5782 31.7539 25.5779C31.7542 25.5775 31.7546 25.5771 31.7549 25.5768L31.7558 25.576C31.7561 25.5757 31.7565 25.5753 31.7569 25.5749L31.7578 25.5741C31.7581 25.5738 31.7585 25.5734 31.7588 25.5731C31.7591 25.5728 31.7596 25.5725 31.7599 25.5722C31.7602 25.5719 31.7604 25.5715 31.7608 25.5712C31.7611 25.5709 31.7615 25.5707 31.7618 25.5704C31.7621 25.57 31.7625 25.5696 31.7629 25.5693L31.7638 25.5685C31.7641 25.5682 31.7645 25.5678 31.7648 25.5674L31.7657 25.5666C31.766 25.5663 31.7664 25.5659 31.7668 25.5656C31.7671 25.5653 31.7675 25.565 31.7678 25.5647C31.7682 25.5644 31.7684 25.564 31.7687 25.5637C31.769 25.5634 31.7694 25.5632 31.7698 25.5629C31.7701 25.5625 31.7705 25.5621 31.7708 25.5618L31.7717 25.561C31.7721 25.5607 31.7724 25.5603 31.7728 25.5599L31.7737 25.5591C31.774 25.5588 31.7744 25.5584 31.7747 25.5581C31.775 25.5578 31.7755 25.5575 31.7758 25.5572C31.7761 25.5569 31.7763 25.5565 31.7767 25.5562C31.777 25.5559 31.7774 25.5557 31.7777 25.5554C31.7781 25.555 31.7785 25.5546 31.7788 25.5543L31.7797 25.5535C31.78 25.5532 31.7804 25.5527 31.7807 25.5524L31.7816 25.5516C31.782 25.5513 31.7824 25.5509 31.7827 25.5506C31.783 25.5503 31.7834 25.55 31.7837 25.5497C31.7841 25.5494 31.7843 25.549 31.7846 25.5487C31.785 25.5484 31.7854 25.5482 31.7857 25.5479C31.786 25.5475 31.7864 25.5471 31.7867 25.5468L31.7876 25.546C31.788 25.5457 31.7884 25.5452 31.7887 25.5449L31.7896 25.5441C31.7899 25.5438 31.7903 25.5434 31.7906 25.5431C31.791 25.5428 31.7914 25.5425 31.7917 25.5422C31.792 25.5419 31.7923 25.5415 31.7926 25.5412C31.7929 25.5409 31.7933 25.5407 31.7936 25.5404C31.794 25.54 31.7944 25.5396 31.7947 25.5393L31.7956 25.5385C31.7959 25.5382 31.7963 25.5377 31.7967 25.5374L31.7975 25.5366C31.7979 25.5363 31.7983 25.5359 31.7986 25.5356C31.7989 25.5353 31.7993 25.535 31.7997 25.5347C31.8 25.5344 31.8002 25.534 31.8005 25.5337C31.8009 25.5334 31.8013 25.5332 31.8016 25.5328C31.8019 25.5325 31.8023 25.5321 31.8027 25.5318L31.8035 25.531C31.8039 25.5307 31.8043 25.5302 31.8046 25.5299L31.8055 25.5291C31.8058 25.5288 31.8062 25.5284 31.8066 25.5281C31.8069 25.5278 31.8073 25.5275 31.8076 25.5272C31.8079 25.5269 31.8082 25.5265 31.8085 25.5262C31.8088 25.5259 31.8092 25.5257 31.8096 25.5253C31.8099 25.525 31.8103 25.5246 31.8106 25.5243L31.8115 25.5235C31.8118 25.5232 31.8122 25.5227 31.8126 25.5224L31.8134 25.5216C31.8138 25.5213 31.8142 25.5209 31.8145 25.5206C31.8148 25.5203 31.8152 25.52 31.8156 25.5197C31.8159 25.5194 31.8161 25.519 31.8165 25.5187C31.8168 25.5184 31.8172 25.5182 31.8175 25.5178C31.8178 25.5175 31.8182 25.5171 31.8186 25.5168L31.8195 25.516C31.8198 25.5157 31.8202 25.5152 31.8205 25.5149L31.8214 25.5141C31.8217 25.5138 31.8221 25.5134 31.8225 25.5131C31.8228 25.5127 31.8232 25.5125 31.8235 25.5122C31.8239 25.5119 31.8241 25.5115 31.8244 25.5112C31.8247 25.5109 31.8251 25.5107 31.8255 25.5103C31.8258 25.51 31.8262 25.5096 31.8265 25.5093L31.8274 25.5085C31.8277 25.5082 31.8281 25.5077 31.8285 25.5074L31.8294 25.5066C31.8297 25.5063 31.8301 25.5059 31.8304 25.5056C31.8307 25.5052 31.8312 25.505 31.8315 25.5047C31.8318 25.5044 31.832 25.504 31.8324 25.5037C31.8327 25.5034 31.8331 25.5032 31.8334 25.5028C31.8338 25.5025 31.8342 25.5021 31.8345 25.5018L31.8354 25.501C31.8357 25.5007 31.8361 25.5002 31.8364 25.4999L31.8373 25.4991C31.8377 25.4988 31.838 25.4984 31.8384 25.498C31.8387 25.4977 31.8391 25.4975 31.8394 25.4972C31.8398 25.4969 31.84 25.4965 31.8403 25.4962C31.8407 25.4959 31.8411 25.4957 31.8414 25.4953C31.8417 25.495 31.8421 25.4946 31.8424 25.4943L31.8433 25.4935C31.8437 25.4932 31.8441 25.4927 31.8444 25.4924L31.8453 25.4916C31.8456 25.4913 31.846 25.4909 31.8463 25.4905C31.8467 25.4902 31.8471 25.49 31.8474 25.4897C31.8477 25.4894 31.848 25.489 31.8483 25.4887C31.8486 25.4884 31.849 25.4882 31.8493 25.4878C31.8497 25.4875 31.8501 25.4871 31.8504 25.4868L31.8513 25.486C31.8516 25.4857 31.852 25.4852 31.8523 25.4849L31.8532 25.4841C31.8536 25.4838 31.854 25.4834 31.8543 25.483C31.8546 25.4827 31.855 25.4825 31.8554 25.4822C31.8557 25.4819 31.8559 25.4815 31.8562 25.4812C31.8566 25.4809 31.857 25.4806 31.8573 25.4803C31.8576 25.48 31.858 25.4796 31.8584 25.4793L31.8592 25.4785C31.8596 25.4781 31.86 25.4777 31.8603 25.4774L31.8612 25.4766C31.8615 25.4763 31.8619 25.4759 31.8623 25.4755C31.8626 25.4752 31.863 25.475 31.8633 25.4747C31.8636 25.4744 31.8639 25.474 31.8642 25.4737C31.8645 25.4734 31.8649 25.4731 31.8653 25.4728C31.8656 25.4725 31.866 25.4721 31.8663 25.4718L31.8672 25.471C31.8675 25.4706 31.8679 25.4702 31.8683 25.4699L31.8691 25.4691C31.8695 25.4688 31.8699 25.4684 31.8702 25.468C31.8705 25.4677 31.8709 25.4675 31.8713 25.4672C31.8716 25.4669 31.8718 25.4665 31.8722 25.4662C31.8725 25.4659 31.8729 25.4656 31.8732 25.4653C31.8735 25.465 31.8739 25.4646 31.8743 25.4643L31.8752 25.4635C31.8755 25.4631 31.8759 25.4627 31.8762 25.4624L31.8771 25.4616C31.8774 25.4613 31.8778 25.4609 31.8782 25.4605C31.8785 25.4602 31.8789 25.46 31.8792 25.4597C31.8795 25.4594 31.8798 25.459 31.8801 25.4587L31.8844 25.4547L31.8888 25.451C32.0396 25.3255 32.2018 25.252 32.3724 25.252Z" fill="#49D7EE"/>
<path d="M55.2144 16.5122V22.4868L51.7573 24.7124V14.2876L55.2144 16.5122Z" fill="white" stroke="#11274D"/>
<path d="M0.500244 22.4878L0.500245 16.5132L3.95728 14.2876L3.95728 24.7124L0.500244 22.4878Z" fill="white" stroke="#11274D"/>
</svg>
